<svg width="1110" height="250" fill="none" xmlns="http://www.w3.org/2000/svg"><path fill="#2D2641" d="M0 0h1110v250H0z"/><mask id="a" maskUnits="userSpaceOnUse" x="0" y="0" width="1110" height="250"><path fill="#fff" d="M0 0h1110v250H0z"/></mask><g mask="url(#a)" clip-rule="evenodd" stroke="#9E96C6"><path d="M1050.87-183.487c-83.086-26.03-168.521-69.446-255.988 9.854-87.467 79.3-142.457 148.768-106.946 238.649 35.511 89.881 180.463 33.898 222.579 114.23 42.117 80.332-50.423 153.241-10.527 224.736 39.896 71.496 70.573 117.318 198.782 71.859 128.22-45.459 116.39-161.127 213.89-228.861 97.5-67.734 202.99-169.134 58.22-350.07-144.76-180.935-236.92-54.367-320.01-80.397z"/><path d="M1060.98-142.161c-67.552-21.138-137.017-56.395-208.134 8.002C781.73-69.762 737.019-13.351 765.892 59.638c28.873 72.99 146.729 27.527 180.973 92.762 34.243 65.235-40.998 124.441-8.56 182.5 32.439 58.059 57.381 95.269 161.625 58.354 104.25-36.916 94.64-130.846 173.91-185.85 79.27-55.004 165.04-137.347 47.34-284.278-117.71-146.93-192.64-44.149-260.2-65.287z"/><path d="M1080.8-113.491c-54.84-17.231-111.243-45.973-168.983 6.524-57.739 52.496-94.04 98.482-70.598 157.983 23.442 59.501 119.129 22.44 146.932 75.62 27.799 53.179-33.286 101.444-6.95 148.773 26.339 47.329 46.589 77.663 131.229 47.57 84.63-30.094 76.83-106.665 141.19-151.504 64.36-44.839 134-111.966 38.43-231.743-95.56-119.778-156.4-35.99-211.25-53.223z"/><path d="M1100.91-80.123c-44.21-13.836-89.66-36.915-136.194 5.238-46.534 42.153-75.79 79.079-56.898 126.856 18.893 47.777 96.012 18.018 118.422 60.719 22.4 42.702-26.83 81.457-5.6 119.46 21.22 38.004 37.54 62.361 105.75 38.197 68.22-24.164 61.93-85.648 113.8-121.652 51.87-36.005 107.99-89.905 30.97-186.082-77.01-96.177-126.05-28.9-170.25-42.736z"/><path d="M1106.26-58.56c-36.06-11.317-73.14-30.194-111.101 4.285-37.959 34.478-61.824 64.681-46.413 103.76 15.411 39.079 78.314 14.738 96.594 49.665 18.28 34.928-21.88 66.627-4.57 97.712 17.32 31.085 30.63 51.007 86.27 31.243 55.65-19.765 50.52-70.056 92.83-99.505 42.31-29.45 88.09-73.537 25.27-152.204-62.83-78.668-102.83-23.638-138.88-34.956z"/><path d="M1116.95-42.498c-29.32-9.164-59.47-24.448-90.34 3.469-30.875 27.916-50.283 52.37-37.75 84.012 12.53 31.641 63.69 11.933 78.56 40.213 14.86 28.28-17.8 53.946-3.72 79.115 14.08 25.169 24.91 41.299 70.16 25.296s41.08-56.722 75.49-80.566c34.41-23.845 71.64-59.541 20.55-123.237-51.09-63.695-83.62-19.139-112.95-28.302z"/></g></svg>